0
SECTION
2
HEADER
9
$INSUNITS
70
4
9
$ACADVER
1
AC1014
9
$HANDSEED
5
FFFF
0
ENDSEC
0
SECTION
2
TABLES
0
TABLE
2
VPORT
5
8
100
AcDbSymbolTable
0
ENDTAB
0
TABLE
2
LTYPE
5
5
100
AcDbSymbolTable
0
LTYPE
5
14
100
AcDbSymbolTableRecord
100
AcDbLinetypeTableRecord
2
BYBLOCK
70
0
0
LTYPE
5
15
100
AcDbSymbolTableRecord
100
AcDbLinetypeTableRecord
2
BYLAYER
70
0
0
ENDTAB
0
TABLE
2
LAYER
5
2
100
AcDbSymbolTable
70
2
0
LAYER
5
50
100
AcDbSymbolTableRecord
100
AcDbLayerTableRecord
2
0
70
0
6
CONTINUOUS
0
ENDTAB
0
TABLE
2
STYLE
5
3
100
AcDbSymbolTable
70
1
0
STYLE
5
11
100
AcDbSymbolTableRecord
100
AcDbTextStyleTableRecord
2
STANDARD
70
0
0
ENDTAB
0
TABLE
2
VIEW
5
6
100
AcDbSymbolTable
70
0
0
ENDTAB
0
TABLE
2
UCS
5
7
100
AcDbSymbolTable
70
0
0
ENDTAB
0
TABLE
2
APPID
5
9
100
AcDbSymbolTable
70
2
0
APPID
5
12
100
AcDbSymbolTableRecord
100
AcDbRegAppTableRecord
2
ACAD
70
0
0
ENDTAB
0
TABLE
2
DIMSTYLE
5
A
100
AcDbSymbolTable
70
1
0
ENDTAB
0
TABLE
2
BLOCK_RECORD
5
1
100
AcDbSymbolTable
70
1
0
BLOCK_RECORD
5
1F
100
AcDbSymbolTableRecord
100
AcDbBlockTableRecord
2
*MODEL_SPACE
0
BLOCK_RECORD
5
1B
100
AcDbSymbolTableRecord
100
AcDbBlockTableRecord
2
*PAPER_SPACE
0
ENDTAB
0
ENDSEC
0
SECTION
2
BLOCKS
0
BLOCK
5
20
100
AcDbEntity
100
AcDbBlockBegin
2
*MODEL_SPACE
0
ENDBLK
5
21
100
AcDbEntity
100
AcDbBlockEnd
0
BLOCK
5
1C
100
AcDbEntity
100
AcDbBlockBegin
2
*PAPER_SPACE
0
ENDBLK
5
1D
100
AcDbEntity
100
AcDbBlockEnd
0
ENDSEC
0
SECTION
2
ENTITIES
0
LWPOLYLINE
5
100
100
AcDbEntity
8
0
100
AcDbPolyline
90
8
70
1
43
0.0
10
88.954866554548445
20
24.982545249461886
10
18.954866554548428
20
24.982545249461886
42
-0.41421356237309509
10
3.9548665545484276
20
39.982545249461886
10
3.9548665545484174
20
69.982545249462476
42
-0.41421356237309509
10
18.954866554547827
20
84.982545249461893
10
88.95486655454846
20
84.982545249461893
42
-0.41421356237309509
10
103.95486655454845
20
69.982545249461907
10
103.95486655454845
20
39.982545249461879
42
-0.41421356237309509
0
LINE
5
101
100
AcDbEntity
8
0
100
AcDbLine
10
53.954866554548147
20
84.982545249461893
30
0
11
53.95486655454814
21
25
31
0
0
LINE
5
102
100
AcDbEntity
8
0
100
AcDbLine
10
103.95486655454846
20
54.982545249461893
30
0
11
3.9548665545484276
21
54.982545249462184
31
0
0
LINE
5
103
100
AcDbEntity
8
0
100
AcDbLine
10
37.954866554548431
20
72.982545249461438
30
0
11
15.954866554548428
21
72.982545249461438
31
0
0
LINE
5
104
100
AcDbEntity
8
0
100
AcDbLine
10
15.954866554548428
20
72.982545249461438
30
0
11
15.954866554548428
21
36.982545249461445
31
0
0
LINE
5
105
100
AcDbEntity
8
0
100
AcDbLine
10
15.954866554548428
20
36.982545249461445
30
0
11
37.954866554548431
21
36.982545249461445
31
0
0
LINE
5
106
100
AcDbEntity
8
0
100
AcDbLine
10
37.954866554548431
20
36.982545249461445
30
0
11
37.954866554548431
21
72.982545249461438
31
0
0
LINE
5
107
100
AcDbEntity
8
0
100
AcDbLine
10
37.954866554548431
20
72.982545249461438
30
0
11
15.954866554548428
21
36.982545249461445
31
0
0
LINE
5
108
100
AcDbEntity
8
0
100
AcDbLine
10
15.954866554548428
20
72.982545249461438
30
0
11
37.954866554548431
21
36.982545249461445
31
0
0
LWPOLYLINE
5
109
100
AcDbEntity
8
0
100
AcDbPolyline
90
4
70
1
43
0.0
10
69.954866554547849
20
36.982545249461438
10
91.954866554547849
20
36.982545249461431
10
91.954866554547863
20
72.982545249461424
10
69.954866554547863
20
72.982545249461438
0
LINE
5
110
100
AcDbEntity
8
0
100
AcDbLine
10
51.45486655454814
20
56.457545249460765
30
0
11
46.504866554548137
21
56.457545249460765
31
0
0
LINE
5
111
100
AcDbEntity
8
0
100
AcDbLine
10
46.504866554548137
20
56.457545249460765
30
0
11
46.504866554548137
21
53.507545249460762
31
0
0
LINE
5
112
100
AcDbEntity
8
0
100
AcDbLine
10
46.504866554548137
20
53.507545249460762
30
0
11
51.45486655454814
21
53.507545249460762
31
0
0
LINE
5
113
100
AcDbEntity
8
0
100
AcDbLine
10
51.45486655454814
20
53.507545249460762
30
0
11
51.45486655454814
21
56.457545249460765
31
0
0
LINE
5
114
100
AcDbEntity
8
0
100
AcDbLine
10
51.45486655454814
20
56.457545249460765
30
0
11
46.504866554548137
21
53.507545249460762
31
0
0
LINE
5
115
100
AcDbEntity
8
0
100
AcDbLine
10
46.504866554548137
20
56.457545249460765
30
0
11
51.45486655454814
21
53.507545249460762
31
0
0
LINE
5
116
100
AcDbEntity
8
0
100
AcDbLine
10
61.404866554548143
20
53.507545249460762
30
0
11
56.45486655454814
21
53.507545249460762
31
0
0
LINE
5
117
100
AcDbEntity
8
0
100
AcDbLine
10
56.45486655454814
20
53.507545249460762
30
0
11
56.45486655454814
21
56.457545249460765
31
0
0
LINE
5
118
100
AcDbEntity
8
0
100
AcDbLine
10
56.45486655454814
20
56.457545249460765
30
0
11
61.404866554548143
21
56.457545249460765
31
0
0
LINE
5
119
100
AcDbEntity
8
0
100
AcDbLine
10
61.404866554548143
20
56.457545249460765
30
0
11
61.404866554548143
21
53.507545249460762
31
0
0
LINE
5
120
100
AcDbEntity
8
0
100
AcDbLine
10
56.45486655454814
20
56.457545249460765
30
0
11
61.404866554548143
21
53.507545249460762
31
0
0
LINE
5
121
100
AcDbEntity
8
0
100
AcDbLine
10
61.404866554548143
20
56.457545249460765
30
0
11
56.45486655454814
21
53.507545249460762
31
0
0
ENDSEC
0
SECTION
2
OBJECTS
0
DICTIONARY
5
C
100
AcDbDictionary
3
ACAD_GROUP
350
D
3
ACAD_MLINESTYLE
350
17
0
DICTIONARY
5
D
100
AcDbDictionary
0
DICTIONARY
5
1A
330
C
100
AcDbDictionary
0
DICTIONARY
5
17
100
AcDbDictionary
0
ENDSEC
0
EOF
