0
SECTION
2
HEADER
9
$INSUNITS
70
4
9
$ACADVER
1
AC1014
9
$HANDSEED
5
FFFF
0
ENDSEC
0
SECTION
2
TABLES
0
TABLE
2
VPORT
5
8
100
AcDbSymbolTable
0
ENDTAB
0
TABLE
2
LTYPE
5
5
100
AcDbSymbolTable
0
LTYPE
5
14
100
AcDbSymbolTableRecord
100
AcDbLinetypeTableRecord
2
BYBLOCK
70
0
0
LTYPE
5
15
100
AcDbSymbolTableRecord
100
AcDbLinetypeTableRecord
2
BYLAYER
70
0
0
ENDTAB
0
TABLE
2
LAYER
5
2
100
AcDbSymbolTable
70
2
0
LAYER
5
50
100
AcDbSymbolTableRecord
100
AcDbLayerTableRecord
2
0
70
0
6
CONTINUOUS
0
ENDTAB
0
TABLE
2
STYLE
5
3
100
AcDbSymbolTable
70
1
0
STYLE
5
11
100
AcDbSymbolTableRecord
100
AcDbTextStyleTableRecord
2
STANDARD
70
0
0
ENDTAB
0
TABLE
2
VIEW
5
6
100
AcDbSymbolTable
70
0
0
ENDTAB
0
TABLE
2
UCS
5
7
100
AcDbSymbolTable
70
0
0
ENDTAB
0
TABLE
2
APPID
5
9
100
AcDbSymbolTable
70
2
0
APPID
5
12
100
AcDbSymbolTableRecord
100
AcDbRegAppTableRecord
2
ACAD
70
0
0
ENDTAB
0
TABLE
2
DIMSTYLE
5
A
100
AcDbSymbolTable
70
1
0
ENDTAB
0
TABLE
2
BLOCK_RECORD
5
1
100
AcDbSymbolTable
70
1
0
BLOCK_RECORD
5
1F
100
AcDbSymbolTableRecord
100
AcDbBlockTableRecord
2
*MODEL_SPACE
0
BLOCK_RECORD
5
1B
100
AcDbSymbolTableRecord
100
AcDbBlockTableRecord
2
*PAPER_SPACE
0
ENDTAB
0
ENDSEC
0
SECTION
2
BLOCKS
0
BLOCK
5
20
100
AcDbEntity
100
AcDbBlockBegin
2
*MODEL_SPACE
0
ENDBLK
5
21
100
AcDbEntity
100
AcDbBlockEnd
0
BLOCK
5
1C
100
AcDbEntity
100
AcDbBlockBegin
2
*PAPER_SPACE
0
ENDBLK
5
1D
100
AcDbEntity
100
AcDbBlockEnd
0
ENDSEC
0
SECTION
2
ENTITIES
0
LWPOLYLINE
5
100
100
AcDbEntity
8
0
100
AcDbPolyline
90
8
70
1
43
0.0
10
88.904866554548249
20
25.007545249462364
10
18.904866554546999
20
25.007545249462364
42
-0.41421356237309509
10
3.9048665545482408
20
40.007545249461117
10
3.9048665545482408
20
70.007545249462623
42
-0.41421356237309509
10
18.904866554547972
20
85.007545249462368
10
88.904866554548335
20
85.007545249462368
42
-0.41421356237309509
10
103.90486655454825
20
70.007545249462439
10
103.90486655454825
20
40.007545249462368
42
-0.41421356237309509
0
LINE
5
101
100
AcDbEntity
8
0
100
AcDbLine
10
53.90486655454815
20
85.007545249462368
30
0
11
53.90486655454815
21
25
31
0
0
LINE
5
102
100
AcDbEntity
8
0
100
AcDbLine
10
103.90486655454828
20
55.007545249462389
30
0
11
3.9048665545482408
21
55.007545249461877
31
0
0
LINE
5
103
100
AcDbEntity
8
0
100
AcDbLine
10
37.904866554548221
20
73.007545249461302
30
0
11
15.904866554548242
21
73.007545249461302
31
0
0
LINE
5
104
100
AcDbEntity
8
0
100
AcDbLine
10
15.904866554548242
20
73.007545249461302
30
0
11
15.904866554548223
21
37.007545249461302
31
0
0
LINE
5
105
100
AcDbEntity
8
0
100
AcDbLine
10
15.904866554548223
20
37.007545249461302
30
0
11
37.904866554548214
21
37.007545249461302
31
0
0
LINE
5
106
100
AcDbEntity
8
0
100
AcDbLine
10
37.904866554548214
20
37.007545249461302
30
0
11
37.904866554548221
21
73.007545249461302
31
0
0
LINE
5
107
100
AcDbEntity
8
0
100
AcDbLine
10
37.904866554548221
20
73.007545249461302
30
0
11
15.904866554548223
21
37.007545249461302
31
0
0
LINE
5
108
100
AcDbEntity
8
0
100
AcDbLine
10
15.904866554548242
20
73.007545249461302
30
0
11
37.904866554548214
21
37.007545249461302
31
0
0
LWPOLYLINE
5
109
100
AcDbEntity
8
0
100
AcDbPolyline
90
4
70
1
43
0.0
10
69.904866554548079
20
37.007545249461302
10
91.904866554548065
20
37.007545249461302
10
91.904866554548036
20
73.007545249461302
10
69.904866554548079
20
73.007545249461302
0
LINE
5
110
100
AcDbEntity
8
0
100
AcDbLine
10
51.404866554548143
20
56.457545249460765
30
0
11
46.504866554548137
21
56.457545249460765
31
0
0
LINE
5
111
100
AcDbEntity
8
0
100
AcDbLine
10
46.504866554548137
20
56.457545249460765
30
0
11
46.504866554548137
21
53.557545249460759
31
0
0
LINE
5
112
100
AcDbEntity
8
0
100
AcDbLine
10
46.504866554548137
20
53.557545249460759
30
0
11
51.404866554548143
21
53.557545249460759
31
0
0
LINE
5
113
100
AcDbEntity
8
0
100
AcDbLine
10
51.404866554548143
20
53.557545249460759
30
0
11
51.404866554548143
21
56.457545249460765
31
0
0
LINE
5
114
100
AcDbEntity
8
0
100
AcDbLine
10
51.404866554548143
20
56.457545249460765
30
0
11
46.504866554548137
21
53.557545249460759
31
0
0
LINE
5
115
100
AcDbEntity
8
0
100
AcDbLine
10
46.504866554548137
20
56.457545249460765
30
0
11
51.404866554548143
21
53.557545249460759
31
0
0
LINE
5
116
100
AcDbEntity
8
0
100
AcDbLine
10
61.304866554548141
20
53.557545249460759
30
0
11
56.404866554548143
21
53.557545249460759
31
0
0
LINE
5
117
100
AcDbEntity
8
0
100
AcDbLine
10
56.404866554548143
20
53.557545249460759
30
0
11
56.404866554548143
21
56.457545249460765
31
0
0
LINE
5
118
100
AcDbEntity
8
0
100
AcDbLine
10
56.404866554548143
20
56.457545249460765
30
0
11
61.304866554548141
21
56.457545249460765
31
0
0
LINE
5
119
100
AcDbEntity
8
0
100
AcDbLine
10
61.304866554548141
20
56.457545249460765
30
0
11
61.304866554548141
21
53.557545249460759
31
0
0
LINE
5
120
100
AcDbEntity
8
0
100
AcDbLine
10
56.404866554548143
20
56.457545249460765
30
0
11
61.304866554548141
21
53.557545249460759
31
0
0
LINE
5
121
100
AcDbEntity
8
0
100
AcDbLine
10
61.304866554548141
20
56.457545249460765
30
0
11
56.404866554548143
21
53.557545249460759
31
0
0
ENDSEC
0
SECTION
2
OBJECTS
0
DICTIONARY
5
C
100
AcDbDictionary
3
ACAD_GROUP
350
D
3
ACAD_MLINESTYLE
350
17
0
DICTIONARY
5
D
100
AcDbDictionary
0
DICTIONARY
5
1A
330
C
100
AcDbDictionary
0
DICTIONARY
5
17
100
AcDbDictionary
0
ENDSEC
0
EOF
